<svg xmlns="http://www.w3.org/2000/svg" xmlns:xlink="http://www.w3.org/1999/xlink" width="500" zoomAndPan="magnify" viewBox="0 0 375 374.999991" height="500" preserveAspectRatio="xMidYMid meet" version="1.0"><defs><g/><clipPath id="b5aae742cf"><path d="M 5.011719 142.261719 L 78.511719 142.261719 L 78.511719 167 L 5.011719 167 Z M 5.011719 142.261719 " clip-rule="nonzero"/></clipPath></defs><rect x="-37.5" width="450" fill="#ffffff" y="-37.499999" height="449.999989" fill-opacity="1"/><rect x="-37.5" width="450" fill="#ffffff" y="-37.499999" height="449.999989" fill-opacity="1"/><g fill="#0cc0df" fill-opacity="1"><g transform="translate(25.759335, 218.251538)"><g><path d="M 31.203125 -10.640625 C 33.003906 -10.640625 34.75 -10.910156 36.4375 -11.453125 C 38.125 -11.992188 39.363281 -12.515625 40.15625 -13.015625 L 41.34375 -13.828125 L 46.34375 -3.8125 C 46.175781 -3.6875 45.945312 -3.519531 45.65625 -3.3125 C 45.363281 -3.101562 44.6875 -2.71875 43.625 -2.15625 C 42.5625 -1.59375 41.425781 -1.101562 40.21875 -0.6875 C 39.007812 -0.269531 37.425781 0.101562 35.46875 0.4375 C 33.507812 0.769531 31.484375 0.9375 29.390625 0.9375 C 24.597656 0.9375 20.050781 -0.238281 15.75 -2.59375 C 11.457031 -4.945312 8 -8.1875 5.375 -12.3125 C 2.75 -16.445312 1.4375 -20.910156 1.4375 -25.703125 C 1.4375 -29.328125 2.207031 -32.804688 3.75 -36.140625 C 5.289062 -39.484375 7.34375 -42.34375 9.90625 -44.71875 C 12.476562 -47.09375 15.472656 -48.988281 18.890625 -50.40625 C 22.304688 -51.832031 25.804688 -52.546875 29.390625 -52.546875 C 32.734375 -52.546875 35.8125 -52.144531 38.625 -51.34375 C 41.4375 -50.550781 43.425781 -49.757812 44.59375 -48.96875 L 46.34375 -47.78125 L 41.34375 -37.78125 C 41.050781 -38.03125 40.613281 -38.332031 40.03125 -38.6875 C 39.445312 -39.039062 38.28125 -39.507812 36.53125 -40.09375 C 34.78125 -40.675781 33.003906 -40.96875 31.203125 -40.96875 C 28.367188 -40.96875 25.828125 -40.507812 23.578125 -39.59375 C 21.328125 -38.675781 19.546875 -37.46875 18.234375 -35.96875 C 16.921875 -34.46875 15.921875 -32.847656 15.234375 -31.109375 C 14.546875 -29.378906 14.203125 -27.617188 14.203125 -25.828125 C 14.203125 -21.910156 15.671875 -18.398438 18.609375 -15.296875 C 21.546875 -12.191406 25.742188 -10.640625 31.203125 -10.640625 Z M 31.203125 -10.640625 "/></g></g></g><g fill="#0cc0df" fill-opacity="1"><g transform="translate(69.726611, 218.251538)"><g><path d="M 5.9375 -3.96875 C 2.9375 -7.238281 1.4375 -11.25 1.4375 -16 C 1.4375 -20.757812 2.9375 -24.785156 5.9375 -28.078125 C 8.945312 -31.378906 12.765625 -33.03125 17.390625 -33.03125 C 21.640625 -33.03125 25.140625 -31.691406 27.890625 -29.015625 L 27.890625 -32.09375 L 38.96875 -32.09375 L 38.96875 0 L 28.015625 0 L 28.015625 -3.625 L 27.890625 -3.625 C 25.140625 -0.582031 21.640625 0.9375 17.390625 0.9375 C 12.765625 0.9375 8.945312 -0.695312 5.9375 -3.96875 Z M 15.359375 -21.453125 C 13.921875 -20.035156 13.203125 -18.222656 13.203125 -16.015625 C 13.203125 -13.804688 13.890625 -12 15.265625 -10.59375 C 16.640625 -9.195312 18.453125 -8.5 20.703125 -8.5 C 22.867188 -8.5 24.648438 -9.207031 26.046875 -10.625 C 27.441406 -12.050781 28.140625 -13.847656 28.140625 -16.015625 C 28.140625 -18.222656 27.421875 -20.035156 25.984375 -21.453125 C 24.546875 -22.867188 22.785156 -23.578125 20.703125 -23.578125 C 18.578125 -23.578125 16.796875 -22.867188 15.359375 -21.453125 Z M 15.359375 -21.453125 "/></g></g></g><g fill="#0cc0df" fill-opacity="1"><g transform="translate(109.315871, 218.251538)"><g><path d="M 3.75 0 L 3.75 -32.09375 L 14.828125 -32.09375 L 14.828125 -27.453125 L 14.953125 -27.453125 C 15.035156 -27.617188 15.171875 -27.828125 15.359375 -28.078125 C 15.546875 -28.328125 15.953125 -28.765625 16.578125 -29.390625 C 17.203125 -30.015625 17.867188 -30.578125 18.578125 -31.078125 C 19.285156 -31.585938 20.203125 -32.039062 21.328125 -32.4375 C 22.453125 -32.832031 23.597656 -33.03125 24.765625 -33.03125 C 25.972656 -33.03125 27.160156 -32.863281 28.328125 -32.53125 C 29.492188 -32.195312 30.347656 -31.863281 30.890625 -31.53125 L 31.78125 -31.015625 L 27.140625 -21.640625 C 25.765625 -22.804688 23.847656 -23.390625 21.390625 -23.390625 C 20.054688 -23.390625 18.910156 -23.097656 17.953125 -22.515625 C 16.992188 -21.929688 16.316406 -21.222656 15.921875 -20.390625 C 15.523438 -19.554688 15.242188 -18.847656 15.078125 -18.265625 C 14.910156 -17.679688 14.828125 -17.222656 14.828125 -16.890625 L 14.828125 0 Z M 3.75 0 "/></g></g></g><g fill="#0cc0df" fill-opacity="1"><g transform="translate(137.334668, 218.251538)"><g><path d="M 3.75 0 L 3.75 -32.09375 L 14.828125 -32.09375 L 14.828125 -27.453125 L 14.953125 -27.453125 C 15.035156 -27.617188 15.171875 -27.828125 15.359375 -28.078125 C 15.546875 -28.328125 15.953125 -28.765625 16.578125 -29.390625 C 17.203125 -30.015625 17.867188 -30.578125 18.578125 -31.078125 C 19.285156 -31.585938 20.203125 -32.039062 21.328125 -32.4375 C 22.453125 -32.832031 23.597656 -33.03125 24.765625 -33.03125 C 25.972656 -33.03125 27.160156 -32.863281 28.328125 -32.53125 C 29.492188 -32.195312 30.347656 -31.863281 30.890625 -31.53125 L 31.78125 -31.015625 L 27.140625 -21.640625 C 25.765625 -22.804688 23.847656 -23.390625 21.390625 -23.390625 C 20.054688 -23.390625 18.910156 -23.097656 17.953125 -22.515625 C 16.992188 -21.929688 16.316406 -21.222656 15.921875 -20.390625 C 15.523438 -19.554688 15.242188 -18.847656 15.078125 -18.265625 C 14.910156 -17.679688 14.828125 -17.222656 14.828125 -16.890625 L 14.828125 0 Z M 3.75 0 "/></g></g></g><g fill="#0cc0df" fill-opacity="1"><g transform="translate(165.353464, 218.251538)"><g><path d="M 36.21875 -14.515625 L 12.953125 -14.515625 C 12.953125 -12.265625 13.679688 -10.59375 15.140625 -9.5 C 16.597656 -8.414062 18.179688 -7.875 19.890625 -7.875 C 21.679688 -7.875 23.097656 -8.113281 24.140625 -8.59375 C 25.179688 -9.070312 26.367188 -10.023438 27.703125 -11.453125 L 35.71875 -7.4375 C 32.375 -1.851562 26.828125 0.9375 19.078125 0.9375 C 14.242188 0.9375 10.09375 -0.71875 6.625 -4.03125 C 3.164062 -7.34375 1.4375 -11.332031 1.4375 -16 C 1.4375 -20.675781 3.164062 -24.679688 6.625 -28.015625 C 10.09375 -31.359375 14.242188 -33.03125 19.078125 -33.03125 C 24.160156 -33.03125 28.296875 -31.554688 31.484375 -28.609375 C 34.679688 -25.671875 36.28125 -21.472656 36.28125 -16.015625 C 36.28125 -15.265625 36.257812 -14.765625 36.21875 -14.515625 Z M 13.265625 -20.640625 L 25.453125 -20.640625 C 25.203125 -22.304688 24.546875 -23.585938 23.484375 -24.484375 C 22.421875 -25.378906 21.054688 -25.828125 19.390625 -25.828125 C 17.554688 -25.828125 16.097656 -25.347656 15.015625 -24.390625 C 13.929688 -23.429688 13.347656 -22.179688 13.265625 -20.640625 Z M 13.265625 -20.640625 "/></g></g></g><g fill="#0cc0df" fill-opacity="1"><g transform="translate(199.939293, 218.251538)"><g><path d="M 3.75 0 L 3.75 -32.09375 L 14.828125 -32.09375 L 14.828125 -27.453125 L 14.953125 -27.453125 C 15.035156 -27.617188 15.171875 -27.828125 15.359375 -28.078125 C 15.546875 -28.328125 15.953125 -28.765625 16.578125 -29.390625 C 17.203125 -30.015625 17.867188 -30.578125 18.578125 -31.078125 C 19.285156 -31.585938 20.203125 -32.039062 21.328125 -32.4375 C 22.453125 -32.832031 23.597656 -33.03125 24.765625 -33.03125 C 25.972656 -33.03125 27.160156 -32.863281 28.328125 -32.53125 C 29.492188 -32.195312 30.347656 -31.863281 30.890625 -31.53125 L 31.78125 -31.015625 L 27.140625 -21.640625 C 25.765625 -22.804688 23.847656 -23.390625 21.390625 -23.390625 C 20.054688 -23.390625 18.910156 -23.097656 17.953125 -22.515625 C 16.992188 -21.929688 16.316406 -21.222656 15.921875 -20.390625 C 15.523438 -19.554688 15.242188 -18.847656 15.078125 -18.265625 C 14.910156 -17.679688 14.828125 -17.222656 14.828125 -16.890625 L 14.828125 0 Z M 3.75 0 "/></g></g></g><g fill="#004aad" fill-opacity="1"><g transform="translate(227.966357, 218.251538)"><g><path d="M 3.75 -51.59375 L 22.578125 -51.59375 C 27.828125 -51.59375 32.078125 -50.238281 35.328125 -47.53125 C 38.585938 -44.820312 40.21875 -40.878906 40.21875 -35.703125 C 40.21875 -30.535156 38.566406 -26.484375 35.265625 -23.546875 C 31.972656 -20.609375 27.742188 -19.140625 22.578125 -19.140625 L 15.515625 -19.140625 L 15.515625 0 L 3.75 0 Z M 15.515625 -28.515625 L 18.828125 -28.515625 C 21.453125 -28.515625 23.609375 -29.046875 25.296875 -30.109375 C 26.984375 -31.179688 27.828125 -32.925781 27.828125 -35.34375 C 27.828125 -37.800781 26.984375 -39.5625 25.296875 -40.625 C 23.609375 -41.6875 21.453125 -42.21875 18.828125 -42.21875 L 15.515625 -42.21875 Z M 15.515625 -28.515625 "/></g></g></g><g fill="#004aad" fill-opacity="1"><g transform="translate(266.49238, 218.251538)"><g><path d="M 4.8125 -49.96875 C 6.101562 -51.257812 7.644531 -51.90625 9.4375 -51.90625 C 11.238281 -51.90625 12.785156 -51.257812 14.078125 -49.96875 C 15.367188 -48.675781 16.015625 -47.132812 16.015625 -45.34375 C 16.015625 -43.550781 15.367188 -42.007812 14.078125 -40.71875 C 12.785156 -39.425781 11.238281 -38.78125 9.4375 -38.78125 C 7.644531 -38.78125 6.101562 -39.425781 4.8125 -40.71875 C 3.519531 -42.007812 2.875 -43.550781 2.875 -45.34375 C 2.875 -47.132812 3.519531 -48.675781 4.8125 -49.96875 Z M 3.75 -32.09375 L 3.75 0 L 14.828125 0 L 14.828125 -32.09375 Z M 3.75 -32.09375 "/></g></g></g><g fill="#004aad" fill-opacity="1"><g transform="translate(282.252741, 218.251538)"><g><path d="M 3.75 0 L 3.75 -53.796875 L 14.828125 -53.796875 L 14.828125 0 Z M 3.75 0 "/></g></g></g><g fill="#004aad" fill-opacity="1"><g transform="translate(297.700393, 218.251538)"><g><path d="M 6.78125 -3.8125 C 3.21875 -6.976562 1.4375 -11.039062 1.4375 -16 C 1.4375 -20.96875 3.289062 -25.046875 7 -28.234375 C 10.71875 -31.429688 15.304688 -33.03125 20.765625 -33.03125 C 26.140625 -33.03125 30.671875 -31.421875 34.359375 -28.203125 C 38.054688 -24.992188 39.90625 -20.925781 39.90625 -16 C 39.90625 -11.082031 38.097656 -7.03125 34.484375 -3.84375 C 30.878906 -0.65625 26.304688 0.9375 20.765625 0.9375 C 15.015625 0.9375 10.351562 -0.644531 6.78125 -3.8125 Z M 15.359375 -21.453125 C 13.921875 -20.035156 13.203125 -18.222656 13.203125 -16.015625 C 13.203125 -13.804688 13.890625 -12 15.265625 -10.59375 C 16.640625 -9.195312 18.453125 -8.5 20.703125 -8.5 C 22.867188 -8.5 24.648438 -9.207031 26.046875 -10.625 C 27.441406 -12.050781 28.140625 -13.847656 28.140625 -16.015625 C 28.140625 -18.222656 27.421875 -20.035156 25.984375 -21.453125 C 24.546875 -22.867188 22.785156 -23.578125 20.703125 -23.578125 C 18.578125 -23.578125 16.796875 -22.867188 15.359375 -21.453125 Z M 15.359375 -21.453125 "/></g></g></g><g fill="#004aad" fill-opacity="1"><g transform="translate(335.913706, 218.251538)"><g><path d="M 5.625 -32.09375 L 5.625 -44.03125 L 16.703125 -44.03125 L 16.703125 -32.09375 L 23.453125 -32.09375 L 23.453125 -23.640625 L 16.703125 -23.640625 L 16.703125 -13.453125 C 16.703125 -10.484375 17.535156 -9 19.203125 -9 C 19.617188 -9 20.054688 -9.082031 20.515625 -9.25 C 20.972656 -9.414062 21.328125 -9.582031 21.578125 -9.75 L 21.953125 -10 L 24.703125 -1.0625 C 22.328125 0.269531 19.617188 0.9375 16.578125 0.9375 C 14.492188 0.9375 12.695312 0.570312 11.1875 -0.15625 C 9.6875 -0.882812 8.550781 -1.863281 7.78125 -3.09375 C 7.007812 -4.320312 6.457031 -5.613281 6.125 -6.96875 C 5.789062 -8.320312 5.625 -9.773438 5.625 -11.328125 L 5.625 -23.640625 L 1 -23.640625 L 1 -32.09375 Z M 5.625 -32.09375 "/></g></g></g><path fill="#000000" d="M 23.609375 154.667969 L 27.800781 173.277344 C 27.882812 173.648438 28.144531 173.941406 28.453125 174 C 34.796875 175.257812 41.050781 175.203125 47.019531 173.878906 C 52.792969 172.597656 58.300781 170.132812 63.359375 166.523438 C 63.511719 166.414062 63.667969 166.300781 63.820312 166.191406 C 63.824219 166.1875 63.828125 166.183594 63.832031 166.179688 C 64.109375 165.96875 64.230469 165.554688 64.140625 165.140625 L 59.964844 146.605469 C 59.855469 146.121094 59.453125 145.796875 59.066406 145.882812 L 24.109375 153.632812 C 23.722656 153.71875 23.5 154.179688 23.609375 154.667969 " fill-opacity="1" fill-rule="nonzero"/><g clip-path="url(#b5aae742cf)"><path fill="#1a1a1a" d="M 78.246094 143.070312 L 72.03125 147.597656 L 71.488281 147.992188 L 55.160156 159.890625 L 47.609375 165.390625 L 45.535156 166.902344 C 45.488281 166.9375 45.429688 166.949219 45.375 166.9375 L 5.554688 159.21875 C 5.222656 159.15625 5.015625 158.585938 5.277344 158.457031 L 19.078125 152.363281 L 20.367188 151.792969 L 40.039062 143.105469 C 40.066406 143.09375 40.097656 143.085938 40.128906 143.085938 L 78.167969 142.261719 C 78.464844 142.269531 78.519531 142.871094 78.246094 143.070312 " fill-opacity="1" fill-rule="nonzero"/></g><path fill="#eca625" d="M 69.484375 165.691406 C 69.722656 166.175781 70.136719 166.523438 70.625 166.742188 L 70.960938 165.503906 L 71.210938 164.585938 C 71.226562 164.542969 71.292969 164.554688 71.289062 164.597656 L 71.203125 165.640625 L 71.101562 166.914062 C 71.378906 166.992188 71.671875 167.035156 71.964844 167.046875 L 72.054688 165.921875 L 72.089844 165.472656 C 72.09375 165.425781 72.160156 165.425781 72.164062 165.472656 L 72.21875 165.953125 L 72.335938 167.046875 C 72.652344 167.035156 72.957031 166.984375 73.242188 166.90625 L 73.253906 165.976562 L 73.253906 165.804688 C 73.253906 165.761719 73.320312 165.753906 73.328125 165.800781 L 73.359375 165.96875 L 73.511719 166.820312 C 73.988281 166.640625 74.363281 166.367188 74.535156 166.011719 C 74.585938 165.910156 74.628906 165.75 74.660156 165.539062 C 74.835938 164.300781 74.503906 161.324219 71.742188 158.367188 C 71.742188 158.367188 71.738281 158.371094 71.734375 158.375 C 71.730469 158.378906 71.730469 158.382812 71.726562 158.390625 C 71.472656 158.75 68.300781 163.292969 69.484375 165.691406 " fill-opacity="1" fill-rule="nonzero"/><path fill="#f7ab1e" d="M 70.167969 164.640625 C 70.347656 165.003906 70.625 165.292969 70.960938 165.503906 L 71.210938 164.585938 C 71.226562 164.542969 71.292969 164.554688 71.289062 164.597656 L 71.203125 165.640625 C 71.46875 165.773438 71.753906 165.867188 72.054688 165.921875 L 72.089844 165.472656 C 72.09375 165.425781 72.160156 165.425781 72.164062 165.472656 L 72.21875 165.953125 C 72.5625 166.003906 72.914062 166.011719 73.253906 165.976562 L 73.253906 165.804688 C 73.253906 165.761719 73.320312 165.753906 73.328125 165.800781 L 73.359375 165.96875 C 73.851562 165.90625 74.308594 165.757812 74.660156 165.539062 C 74.835938 164.300781 74.503906 161.324219 71.742188 158.367188 C 71.742188 158.367188 71.738281 158.371094 71.734375 158.375 C 71.730469 158.378906 71.730469 158.382812 71.726562 158.390625 C 70.777344 159.957031 69.296875 162.875 70.167969 164.640625 " fill-opacity="1" fill-rule="nonzero"/><path fill="#eca625" d="M 71.289062 159.34375 L 72.3125 159.34375 C 72.558594 159.34375 72.761719 159.144531 72.761719 158.898438 C 72.761719 158.652344 72.558594 158.453125 72.3125 158.453125 L 71.289062 158.453125 C 71.042969 158.453125 70.84375 158.652344 70.84375 158.898438 C 70.84375 159.144531 71.042969 159.34375 71.289062 159.34375 " fill-opacity="1" fill-rule="nonzero"/><path fill="#fbb03b" d="M 72.042969 147.773438 C 72.042969 147.773438 72.042969 147.773438 72.042969 147.769531 C 72.042969 147.710938 72.023438 147.648438 71.988281 147.597656 C 71.882812 147.445312 71.695312 147.359375 71.5 147.394531 L 42.222656 152.511719 C 42.050781 152.542969 41.9375 152.703125 41.96875 152.875 C 41.996094 153.042969 42.160156 153.15625 42.332031 153.125 L 71.488281 147.992188 L 71.488281 158.742188 C 71.488281 158.757812 71.488281 158.773438 71.492188 158.789062 C 71.515625 158.941406 71.644531 159.054688 71.800781 159.054688 C 71.960938 159.054688 72.09375 158.9375 72.113281 158.78125 C 72.117188 158.769531 72.117188 158.757812 72.117188 158.742188 L 72.042969 147.773438 " fill-opacity="1" fill-rule="nonzero"/></svg>